<svg width="86" height="18" viewBox="0 0 86 18" fill="none" xmlns="http://www.w3.org/2000/svg">
<g clip-path="url(#clip0_595_745)">
<path d="M16.3985 12.0327C25.7026 7.38368 35.6424 5.95581 45.9115 6.32948C54.1872 6.63017 62.1622 8.26868 69.6137 12.0404C52.0781 8.24994 33.9353 8.24734 16.3985 12.0327Z" fill="#7950DA"/>
<path d="M26.2921 6.49845C32.1451 1.84136 38.395 0.40487 44.8504 0.769643C50.0526 1.06316 55.0647 2.69475 59.7458 6.45997C48.7253 2.68475 37.3198 2.69787 26.2921 6.49845Z" fill="#7950DA"/>
<path d="M8.21748e-05 17.5518C15.0281 12.9121 31.0856 11.5026 47.6775 11.891C61.0499 12.2036 73.9328 13.8535 85.9868 17.6319C57.4533 13.8169 28.5407 13.79 8.21748e-05 17.5518Z" fill="#7950DA"/>
</g>
<defs>
<clipPath id="clip0_595_745">
<rect width="86" height="17.0759" fill="white" transform="translate(0 0.676666)"/>
</clipPath>
</defs>
</svg>
