<svg width="48" height="48" viewBox="0 0 48 48" fill="none" xmlns="http://www.w3.org/2000/svg">
<path d="M28.5 21H36" stroke="#7950DA" stroke-width="1.5" stroke-linecap="round" stroke-linejoin="round"/>
<path d="M28.5 27H36" stroke="#7950DA" stroke-width="1.5" stroke-linecap="round" stroke-linejoin="round"/>
<path d="M17.2695 27C19.7548 27 21.7695 24.9853 21.7695 22.5C21.7695 20.0147 19.7548 18 17.2695 18C14.7842 18 12.7695 20.0147 12.7695 22.5C12.7695 24.9853 14.7842 27 17.2695 27Z" stroke="#7950DA" stroke-width="1.5" stroke-linecap="round" stroke-linejoin="round"/>
<path d="M11.457 31.4999C11.7899 30.2119 12.5413 29.0711 13.5931 28.2566C14.6449 27.4421 15.9375 27 17.2678 27C18.5981 27 19.8907 27.4419 20.9425 28.2563C21.9944 29.0708 22.7458 30.2116 23.0788 31.4995" stroke="#7950DA" stroke-width="1.5" stroke-linecap="round" stroke-linejoin="round"/>
<path d="M40.5 9H7.5C6.67157 9 6 9.67157 6 10.5V37.5C6 38.3284 6.67157 39 7.5 39H40.5C41.3284 39 42 38.3284 42 37.5V10.5C42 9.67157 41.3284 9 40.5 9Z" stroke="#7950DA" stroke-width="1.5" stroke-linecap="round" stroke-linejoin="round"/>
</svg>
