<svg width="81" height="80" viewBox="0 0 81 80" fill="none" xmlns="http://www.w3.org/2000/svg">
<g clip-path="url(#clip0_496_567)">
<path d="M83.625 -2.5V84.375H-2.9375V-2.5H83.625Z" fill="white"/>
<g opacity="0.792949">
<path d="M40.5005 6.11572C58.894 6.11572 73.8281 21.0498 73.8281 39.4434C73.8281 57.8369 58.894 72.771 40.5005 72.771C22.107 72.771 7.17285 57.8369 7.17285 39.4434C7.17285 21.0498 22.107 6.11572 40.5005 6.11572Z" fill="#C7F1E0"/>
<path d="M40.5005 6.11572C58.894 6.11572 73.8281 21.0498 73.8281 39.4434C73.8281 57.8369 58.894 72.771 40.5005 72.771C22.107 72.771 7.17285 57.8369 7.17285 39.4434C7.17285 21.0498 22.107 6.11572 40.5005 6.11572Z" stroke="white" stroke-width="0.564875"/>
</g>
<path d="M40.5 11.9313C55.7634 11.9313 68.1562 24.324 68.1562 39.5875C68.1562 54.851 55.7634 67.2437 40.5 67.2437C25.2365 67.2437 12.8438 54.851 12.8438 39.5875C12.8438 24.324 25.2365 11.9313 40.5 11.9313Z" fill="#2CDA94"/>
<path d="M27.6094 40.7031L35.6562 48.5938L51.9062 31.7969" stroke="white" stroke-width="4.6875" stroke-linecap="round" stroke-linejoin="round"/>
</g>
<defs>
<clipPath id="clip0_496_567">
<rect width="80" height="80" fill="white" transform="translate(0.5)"/>
</clipPath>
</defs>
</svg>
