<svg width="20" height="20" viewBox="0 0 20 20" fill="none" xmlns="http://www.w3.org/2000/svg">
<path d="M12.7415 8.57492L10.4249 10.8916C10.2861 10.8547 10.1434 10.8351 9.99986 10.8333C9.55784 10.8333 9.13391 11.0088 8.82135 11.3214C8.50879 11.634 8.3332 12.0579 8.3332 12.4999C8.33505 12.6434 8.35465 12.7862 8.39153 12.9249L7.74153 13.5749C7.66342 13.6524 7.60143 13.7446 7.55912 13.8461C7.51681 13.9477 7.49503 14.0566 7.49503 14.1666C7.49503 14.2766 7.51681 14.3855 7.55912 14.4871C7.60143 14.5886 7.66342 14.6808 7.74153 14.7583C7.819 14.8364 7.91117 14.8984 8.01272 14.9407C8.11426 14.983 8.22319 15.0048 8.3332 15.0048C8.44321 15.0048 8.55213 14.983 8.65368 14.9407C8.75523 14.8984 8.84739 14.8364 8.92486 14.7583L9.57486 14.1083C9.71358 14.1451 9.85633 14.1647 9.99986 14.1666C10.4419 14.1666 10.8658 13.991 11.1784 13.6784C11.4909 13.3659 11.6665 12.9419 11.6665 12.4999C11.6647 12.3564 11.6451 12.2136 11.6082 12.0749L13.9249 9.75825C14.0818 9.60133 14.1699 9.3885 14.1699 9.16658C14.1699 8.94467 14.0818 8.73184 13.9249 8.57492C13.7679 8.418 13.5551 8.32984 13.3332 8.32984C13.1113 8.32984 12.8984 8.418 12.7415 8.57492ZM9.99986 3.33325C8.90551 3.33325 7.82188 3.5488 6.81083 3.96759C5.79979 4.38638 4.88113 5.00021 4.10731 5.77403C2.5445 7.33683 1.66653 9.45645 1.66653 11.6666C1.66243 13.3171 2.15296 14.9309 3.07486 16.2999C3.19863 16.4834 3.3902 16.6101 3.60743 16.6523C3.82466 16.6945 4.04975 16.6487 4.2332 16.5249C4.41664 16.4012 4.5434 16.2096 4.58559 15.9923C4.62779 15.7751 4.58196 15.55 4.4582 15.3666C3.78696 14.3629 3.40093 13.1957 3.34132 11.9897C3.28172 10.7837 3.55078 9.58412 4.11977 8.51911C4.68876 7.4541 5.53632 6.56361 6.57195 5.94274C7.60757 5.32187 8.79238 4.99393 9.99986 4.99393C11.2073 4.99393 12.3922 5.32187 13.4278 5.94274C14.4634 6.56361 15.311 7.4541 15.88 8.51911C16.4489 9.58412 16.718 10.7837 16.6584 11.9897C16.5988 13.1957 16.2128 14.3629 15.5415 15.3666C15.4801 15.4574 15.4372 15.5594 15.4153 15.6668C15.3933 15.7742 15.3928 15.8848 15.4137 15.9924C15.4346 16.1 15.4765 16.2025 15.5371 16.2938C15.5976 16.3852 15.6756 16.4637 15.7665 16.5249C15.9045 16.6176 16.067 16.667 16.2332 16.6666C16.3697 16.6668 16.5042 16.6335 16.6248 16.5695C16.7454 16.5056 16.8484 16.413 16.9249 16.2999C17.8468 14.9309 18.3373 13.3171 18.3332 11.6666C18.3332 9.45645 17.4552 7.33683 15.8924 5.77403C14.3296 4.21123 12.21 3.33325 9.99986 3.33325Z" fill="#7950DA"/>
</svg>
