<svg width="19" height="18" viewBox="0 0 19 18" fill="none" xmlns="http://www.w3.org/2000/svg">
<path fill-rule="evenodd" clip-rule="evenodd" d="M18.5645 8.45555C18.4559 6.28349 17.4888 4.24356 15.8761 2.78453C14.2633 1.32549 12.1371 0.566866 9.96502 0.675537C9.68361 0.689616 9.44935 0.868018 9.35048 1.11322C8.91146 1.03858 8.46027 0.999712 8 0.999712C3.58172 0.999712 0 4.58143 0 8.99971C0 13.418 3.58172 16.9997 8 16.9997C8.74297 16.9997 9.46228 16.8984 10.1449 16.7089C10.2726 16.9272 10.5145 17.0686 10.7845 17.055C12.9566 16.9464 14.9965 15.9793 16.4555 14.3666C17.9146 12.7539 18.6732 10.6276 18.5645 8.45555ZM13.2715 15.0174C14.944 13.5512 16 11.3988 16 8.99971C16 6.27651 14.6394 3.87111 12.5608 2.42626C13.4316 2.72188 14.2417 3.19384 14.9368 3.82271C16.2742 5.03264 17.0762 6.72429 17.1663 8.52551C17.2564 10.3267 16.6273 12.09 15.4174 13.4273C14.8083 14.1006 14.0772 14.6381 13.2715 15.0174ZM14.6 8.99971C14.6 12.6448 11.6451 15.5997 8 15.5997C4.35492 15.5997 1.4 12.6448 1.4 8.99971C1.4 5.35463 4.35492 2.39971 8 2.39971C11.6451 2.39971 14.6 5.35463 14.6 8.99971Z" fill="#71879C"/>
</svg>
