<svg width="17" height="17" viewBox="0 0 17 17" fill="none" xmlns="http://www.w3.org/2000/svg">
<g clip-path="url(#clip0_1494_2669)">
<path d="M12.4746 5.46167C12.4746 4.4008 12.0532 3.38339 11.303 2.63324C10.5529 1.8831 9.53548 1.46167 8.47461 1.46167C7.41374 1.46167 6.39633 1.8831 5.64618 2.63324C4.89604 3.38339 4.47461 4.4008 4.47461 5.46167C4.47461 10.1283 2.47461 11.4617 2.47461 11.4617H14.4746C14.4746 11.4617 12.4746 10.1283 12.4746 5.46167Z" stroke="#71879C" stroke-width="1.40595" stroke-linecap="round" stroke-linejoin="round"/>
<path d="M9.62795 14.1284C9.51075 14.3305 9.34252 14.4982 9.14011 14.6148C8.9377 14.7314 8.70821 14.7927 8.47462 14.7927C8.24104 14.7927 8.01155 14.7314 7.80914 14.6148C7.60673 14.4982 7.4385 14.3305 7.32129 14.1284" stroke="#71879C" stroke-width="1.40595" stroke-linecap="round" stroke-linejoin="round"/>
</g>
<defs>
<clipPath id="clip0_1494_2669">
<rect width="16" height="16" fill="white" transform="translate(0.474609 0.128418)"/>
</clipPath>
</defs>
</svg>
